<?xml version="1.0" encoding="UTF-8"?>

<svg version="1.2" baseProfile="tiny" width="143.51mm" height="143.51mm" viewBox="0 0 14351 14351" preserveAspectRatio="xMidYMid" fill-rule="evenodd" clip-path="url(#presentation_clip_path)" stroke-width="28.222" stroke-linejoin="round" xmlns="http://www.w3.org/2000/svg" xmlns:ooo="http://xml.openoffice.org/svg/export" xmlns:xlink="http://www.w3.org/1999/xlink" xml:space="preserve">
 <defs class="ClipPathGroup">
  <clipPath id="presentation_clip_path" clipPathUnits="userSpaceOnUse">
   <rect x="0" y="0" width="14351" height="14351"/>
  </clipPath>
 </defs>
 <defs class="TextShapeIndex">
  <g ooo:slide="id1" ooo:id-list="id3 id4 id5 id6"/>
 </defs>
 <defs class="EmbeddedBulletChars">
  <g id="bullet-char-template(57356)" transform="scale(0.00048828125,-0.00048828125)">
   <path d="M 580,1141 L 1163,571 580,0 -4,571 580,1141 Z"/>
  </g>
  <g id="bullet-char-template(57354)" transform="scale(0.00048828125,-0.00048828125)">
   <path d="M 8,1128 L 1137,1128 1137,0 8,0 8,1128 Z"/>
  </g>
  <g id="bullet-char-template(10146)" transform="scale(0.00048828125,-0.00048828125)">
   <path d="M 174,0 L 602,739 174,1481 1456,739 174,0 Z M 1358,739 L 309,1346 659,739 1358,739 Z"/>
  </g>
  <g id="bullet-char-template(10132)" transform="scale(0.00048828125,-0.00048828125)">
   <path d="M 2015,739 L 1276,0 717,0 1260,543 174,543 174,936 1260,936 717,1481 1274,1481 2015,739 Z"/>
  </g>
  <g id="bullet-char-template(10007)" transform="scale(0.00048828125,-0.00048828125)">
   <path d="M 0,-2 C -7,14 -16,27 -25,37 L 356,567 C 262,823 215,952 215,954 215,979 228,992 255,992 264,992 276,990 289,987 310,991 331,999 354,1012 L 381,999 492,748 772,1049 836,1024 860,1049 C 881,1039 901,1025 922,1006 886,937 835,863 770,784 769,783 710,716 594,584 L 774,223 C 774,196 753,168 711,139 L 727,119 C 717,90 699,76 672,76 641,76 570,178 457,381 L 164,-76 C 142,-110 111,-127 72,-127 30,-127 9,-110 8,-76 1,-67 -2,-52 -2,-32 -2,-23 -1,-13 0,-2 Z"/>
  </g>
  <g id="bullet-char-template(10004)" transform="scale(0.00048828125,-0.00048828125)">
   <path d="M 285,-33 C 182,-33 111,30 74,156 52,228 41,333 41,471 41,549 55,616 82,672 116,743 169,778 240,778 293,778 328,747 346,684 L 369,508 C 377,444 397,411 428,410 L 1163,1116 C 1174,1127 1196,1133 1229,1133 1271,1133 1292,1118 1292,1087 L 1292,965 C 1292,929 1282,901 1262,881 L 442,47 C 390,-6 338,-33 285,-33 Z"/>
  </g>
  <g id="bullet-char-template(9679)" transform="scale(0.00048828125,-0.00048828125)">
   <path d="M 813,0 C 632,0 489,54 383,161 276,268 223,411 223,592 223,773 276,916 383,1023 489,1130 632,1184 813,1184 992,1184 1136,1130 1245,1023 1353,916 1407,772 1407,592 1407,412 1353,268 1245,161 1136,54 992,0 813,0 Z"/>
  </g>
  <g id="bullet-char-template(8226)" transform="scale(0.00048828125,-0.00048828125)">
   <path d="M 346,457 C 273,457 209,483 155,535 101,586 74,649 74,723 74,796 101,859 155,911 209,963 273,989 346,989 419,989 480,963 531,910 582,859 608,796 608,723 608,648 583,586 532,535 482,483 420,457 346,457 Z"/>
  </g>
  <g id="bullet-char-template(8211)" transform="scale(0.00048828125,-0.00048828125)">
   <path d="M -4,459 L 1135,459 1135,606 -4,606 -4,459 Z"/>
  </g>
 </defs>
 <defs class="TextEmbeddedBitmaps"/>
 <g>
  <g id="id2" class="Master_Slide">
   <g id="bg-id2" class="Background"/>
   <g id="bo-id2" class="BackgroundObjects"/>
  </g>
 </g>
 <g class="SlideGroup">
  <g>
   <g id="id1" class="Slide" clip-path="url(#presentation_clip_path)">
    <g class="Page">
     <g class="com.sun.star.drawing.ClosedBezierShape">
      <g id="id3">
       <path fill="rgb(1,1,1)" stroke="none" d="M 10254,10478 C 10026,10258 9739,10080 9445,9903 9311,9825 8904,9484 9044,9002 L 8790,8889 C 9191,8229 9712,7576 10354,6966 9839,7150 9385,7434 9044,7938 9244,7491 9572,7051 9933,6604 9438,6980 9011,7406 8743,7973 L 8930,7179 C 8663,7689 8476,8208 8402,8725 L 8008,8555 7941,8612 C 8289,9272 8108,9619 7934,9740 7587,9988 7085,10308 6831,10584 6350,11109 6210,11606 6257,12266 6303,13110 6885,13812 7653,14089 7994,14210 8309,14224 8656,14224 9218,14224 9792,14068 10214,13692 10662,13302 10922,12706 10922,12096 10922,11478 10682,10889 10254,10478 Z M 7493,13834 C 6872,13515 6457,12826 6430,12266 6377,11123 6892,10790 7373,10371 7640,10137 8014,10024 8228,9605 8268,9513 8295,9314 8242,9101 8222,9031 8121,8775 8081,8718 L 8676,8995 C 8663,9293 8656,9534 8710,9754 8770,9995 9064,10343 9184,10747 9418,11514 9358,12514 9191,13295 9164,13422 9077,13578 8970,13720 9011,13642 9044,13564 9064,13479 9231,12848 9305,12557 9224,11861 9211,11790 9184,11563 9084,11315 8944,10939 8730,10584 8703,10506 8656,10386 8589,9875 8583,9527 8589,9825 8609,10371 8683,10584 8703,10655 8897,10974 9037,11365 9131,11634 9151,11883 9171,11954 9238,12273 9158,12812 9051,13323 9017,13507 8924,13720 8803,13883 8870,13784 8924,13656 8964,13507 9044,13209 9077,12826 9071,12585 9064,12443 9004,12138 8904,11861 8843,11712 8757,11556 8696,11450 8629,11343 8629,11109 8603,10840 8609,11131 8583,11279 8650,11485 8690,11606 8837,11776 8877,11939 8937,12159 8997,12401 8990,12549 8990,12720 8984,13032 8910,13373 8863,13628 8757,13848 8583,13990 8656,13891 8696,13791 8716,13692 8743,13543 8750,13401 8763,13224 8777,13074 8770,12883 8730,12677 8676,12422 8589,12166 8549,11989 8556,12188 8629,12436 8663,12698 8690,12890 8676,13082 8670,13252 8663,13451 8603,13798 8523,13968 8442,13933 8416,13883 8362,13812 8295,13720 8255,13621 8215,13507 8182,13422 8148,13323 8128,13216 8108,13046 8115,12784 8295,12514 8436,12301 8462,12287 8509,12039 8442,12259 8395,12280 8248,12464 8081,12670 8055,12968 8055,13209 8055,13309 8095,13422 8128,13529 8168,13642 8208,13756 8262,13841 8302,13912 8355,13962 8402,13997 8228,13947 8048,13876 7934,13777 7653,13521 7406,13089 7373,12706 7346,12393 7613,11939 7994,11712 8315,11514 8389,11294 8456,10932 8362,11244 8268,11514 7961,11677 7520,11932 7293,12344 7313,12741 7346,13245 7533,13592 7914,13869 8001,13933 8121,13997 8248,14047 7774,13926 7714,13855 7553,13656 7553,13642 7513,13614 7513,13607 7299,13351 7032,12911 6938,12507 6905,12365 6872,12216 6912,12074 7085,11407 7466,11152 7847,10875 7941,10804 8034,10740 8121,10669 8335,10492 8389,10031 8436,9768 8349,10088 8255,10485 8088,10613 8001,10684 7894,10740 7807,10804 7413,11088 7019,11358 6838,12046 6798,12223 6825,12351 6865,12521 6965,12940 7232,13394 7460,13663 L 7500,13706 C 7600,13827 7727,13919 7881,13983 7740,13947 7613,13897 7493,13834 Z"/>
      </g>
     </g>
     <g class="com.sun.star.drawing.ClosedBezierShape">
      <g id="id4">
       <path fill="rgb(1,1,1)" stroke="none" d="M 7536,3022 C 7404,2893 7237,2790 7066,2686 6988,2641 6751,2442 6833,2161 L 6685,2095 C 6918,1710 7222,1329 7595,973 7295,1081 7031,1246 6833,1540 6949,1279 7140,1023 7350,762 7062,981 6813,1230 6658,1561 L 6767,1097 C 6611,1395 6502,1697 6460,1999 L 6230,1900 6192,1933 C 6394,2318 6289,2521 6188,2591 5986,2736 5694,2922 5546,3084 5266,3390 5185,3680 5212,4065 5239,4557 5577,4967 6024,5128 6223,5199 6405,5207 6607,5207 6934,5207 7268,5116 7513,4897 7774,4669 7925,4321 7925,3965 7925,3605 7785,3262 7536,3022 Z M 5931,4979 C 5570,4793 5329,4392 5313,4065 5282,3398 5581,3204 5861,2960 6017,2823 6234,2757 6359,2513 6382,2459 6398,2343 6366,2219 6355,2177 6296,2028 6273,1995 L 6619,2157 C 6611,2331 6607,2471 6638,2600 6673,2740 6844,2943 6914,3179 7050,3626 7016,4210 6918,4665 6903,4739 6852,4830 6790,4913 6813,4868 6833,4822 6844,4772 6942,4404 6984,4234 6938,3829 6930,3787 6914,3655 6856,3510 6775,3291 6650,3084 6635,3038 6607,2968 6569,2670 6565,2467 6569,2641 6580,2960 6623,3084 6635,3125 6747,3311 6829,3539 6883,3696 6895,3841 6907,3883 6946,4069 6899,4383 6837,4681 6817,4789 6763,4913 6693,5008 6732,4950 6763,4876 6786,4789 6833,4615 6852,4392 6848,4251 6844,4168 6810,3990 6751,3829 6716,3742 6666,3651 6631,3589 6592,3527 6592,3390 6576,3233 6580,3402 6565,3489 6604,3609 6627,3680 6712,3779 6736,3874 6771,4003 6806,4143 6802,4230 6802,4329 6798,4512 6755,4710 6728,4859 6666,4988 6565,5070 6607,5012 6631,4954 6642,4897 6658,4810 6662,4727 6670,4623 6677,4536 6673,4425 6650,4305 6619,4156 6569,4007 6545,3903 6549,4019 6592,4164 6611,4317 6627,4429 6619,4541 6615,4640 6611,4756 6576,4959 6530,5058 6483,5037 6467,5008 6436,4967 6398,4913 6374,4855 6351,4789 6331,4739 6312,4681 6300,4619 6289,4520 6292,4367 6398,4210 6479,4085 6495,4077 6522,3932 6483,4061 6456,4073 6370,4181 6273,4301 6258,4474 6258,4615 6258,4673 6281,4739 6300,4801 6324,4868 6347,4934 6378,4983 6401,5025 6432,5054 6460,5075 6359,5046 6254,5004 6188,4946 6024,4797 5880,4545 5861,4321 5846,4139 6001,3874 6223,3742 6409,3626 6452,3498 6491,3287 6436,3469 6382,3626 6203,3721 5947,3870 5814,4110 5826,4342 5846,4636 5954,4839 6176,5000 6226,5037 6296,5075 6370,5104 6094,5033 6059,4992 5966,4876 5966,4868 5943,4851 5943,4847 5818,4698 5663,4441 5608,4205 5589,4123 5570,4036 5593,3953 5694,3564 5915,3415 6137,3254 6192,3212 6246,3175 6296,3133 6421,3030 6452,2761 6479,2608 6429,2794 6374,3026 6277,3100 6226,3142 6164,3175 6114,3212 5884,3378 5655,3535 5550,3936 5527,4040 5542,4114 5566,4214 5624,4458 5779,4723 5912,4880 L 5935,4905 C 5993,4975 6067,5029 6157,5066 6075,5046 6001,5017 5931,4979 Z"/>
      </g>
     </g>
     <g class="com.sun.star.drawing.OpenBezierShape">
      <g id="id5">
       <path fill="none" stroke="rgb(0,0,0)" stroke-width="102" stroke-linejoin="round" d="M 6350,12192 C 2101,6037 5288,4191 5288,4191 L 5075,4191"/>
      </g>
     </g>
     <g class="com.sun.star.drawing.OpenBezierShape">
      <g id="id6">
       <path fill="none" stroke="rgb(0,0,0)" stroke-width="102" stroke-linejoin="round" d="M 10738,11176 C 16722,3175 7112,3304 7112,3304 L 7112,3175"/>
      </g>
     </g>
    </g>
   </g>
  </g>
 </g>
</svg>